<mxfile host="app.diagrams.net" modified="2022-12-21T08:02:10.642Z" agent="5.0 (Windows NT 10.0; Win64; x64) AppleWebKit/537.36 (KHTML, like Gecko) Chrome/108.0.0.0 Safari/537.36" etag="RVPMK39_4-jATFlOAO0a" version="20.7.4" type="github">
  <diagram id="A-N_H2hhTLneZuX6YuYR" name="Page-1">
    <mxGraphModel dx="880" dy="444" grid="1" gridSize="10" guides="1" tooltips="1" connect="1" arrows="1" fold="1" page="1" pageScale="1" pageWidth="850" pageHeight="1100" math="0" shadow="0">
      <root>
        <mxCell id="0" />
        <mxCell id="1" parent="0" />
        <mxCell id="aRgtjxC-XMr0UuCk3uVI-1" value="The Author" style="swimlane;whiteSpace=wrap;html=1;" parent="1" vertex="1">
          <mxGeometry x="125" y="50" width="200" height="1040" as="geometry">
            <mxRectangle x="20" y="40" width="100" height="30" as="alternateBounds" />
          </mxGeometry>
        </mxCell>
        <mxCell id="aRgtjxC-XMr0UuCk3uVI-2" style="edgeStyle=orthogonalEdgeStyle;rounded=0;orthogonalLoop=1;jettySize=auto;html=1;exitX=0.5;exitY=1;exitDx=0;exitDy=0;exitPerimeter=0;entryX=0.5;entryY=0;entryDx=0;entryDy=0;" parent="aRgtjxC-XMr0UuCk3uVI-1" source="aRgtjxC-XMr0UuCk3uVI-3" target="aRgtjxC-XMr0UuCk3uVI-5" edge="1">
          <mxGeometry relative="1" as="geometry" />
        </mxCell>
        <mxCell id="aRgtjxC-XMr0UuCk3uVI-3" value="Start" style="strokeWidth=2;html=1;shape=mxgraph.flowchart.start_2;whiteSpace=wrap;" parent="aRgtjxC-XMr0UuCk3uVI-1" vertex="1">
          <mxGeometry x="75" y="40" width="50" height="50" as="geometry" />
        </mxCell>
        <mxCell id="aRgtjxC-XMr0UuCk3uVI-4" style="edgeStyle=orthogonalEdgeStyle;rounded=0;orthogonalLoop=1;jettySize=auto;html=1;exitX=0.5;exitY=1;exitDx=0;exitDy=0;entryX=0.5;entryY=0;entryDx=0;entryDy=0;" parent="aRgtjxC-XMr0UuCk3uVI-1" source="aRgtjxC-XMr0UuCk3uVI-5" target="aRgtjxC-XMr0UuCk3uVI-7" edge="1">
          <mxGeometry relative="1" as="geometry" />
        </mxCell>
        <mxCell id="aRgtjxC-XMr0UuCk3uVI-5" value="The author open the platform" style="rounded=1;whiteSpace=wrap;html=1;absoluteArcSize=1;arcSize=14;strokeWidth=2;" parent="aRgtjxC-XMr0UuCk3uVI-1" vertex="1">
          <mxGeometry x="40" y="120" width="120" height="50" as="geometry" />
        </mxCell>
        <mxCell id="aRgtjxC-XMr0UuCk3uVI-6" style="edgeStyle=orthogonalEdgeStyle;rounded=0;orthogonalLoop=1;jettySize=auto;html=1;exitX=0.5;exitY=1;exitDx=0;exitDy=0;entryX=0.5;entryY=0;entryDx=0;entryDy=0;" parent="aRgtjxC-XMr0UuCk3uVI-1" source="aRgtjxC-XMr0UuCk3uVI-7" target="aRgtjxC-XMr0UuCk3uVI-9" edge="1">
          <mxGeometry relative="1" as="geometry" />
        </mxCell>
        <mxCell id="aRgtjxC-XMr0UuCk3uVI-7" value="Login with Connect to Wallet (Metamask)" style="rounded=1;whiteSpace=wrap;html=1;absoluteArcSize=1;arcSize=14;strokeWidth=2;" parent="aRgtjxC-XMr0UuCk3uVI-1" vertex="1">
          <mxGeometry x="40" y="200" width="120" height="50" as="geometry" />
        </mxCell>
        <mxCell id="aRgtjxC-XMr0UuCk3uVI-8" style="edgeStyle=orthogonalEdgeStyle;rounded=0;orthogonalLoop=1;jettySize=auto;html=1;exitX=0.5;exitY=1;exitDx=0;exitDy=0;entryX=0.5;entryY=0;entryDx=0;entryDy=0;" parent="aRgtjxC-XMr0UuCk3uVI-1" source="aRgtjxC-XMr0UuCk3uVI-9" target="aRgtjxC-XMr0UuCk3uVI-11" edge="1">
          <mxGeometry relative="1" as="geometry" />
        </mxCell>
        <mxCell id="aRgtjxC-XMr0UuCk3uVI-9" value="Create an article" style="rounded=1;whiteSpace=wrap;html=1;absoluteArcSize=1;arcSize=14;strokeWidth=2;" parent="aRgtjxC-XMr0UuCk3uVI-1" vertex="1">
          <mxGeometry x="40" y="280" width="120" height="50" as="geometry" />
        </mxCell>
        <mxCell id="aRgtjxC-XMr0UuCk3uVI-10" style="edgeStyle=orthogonalEdgeStyle;rounded=0;orthogonalLoop=1;jettySize=auto;html=1;exitX=0.5;exitY=1;exitDx=0;exitDy=0;entryX=0.5;entryY=0;entryDx=0;entryDy=0;" parent="aRgtjxC-XMr0UuCk3uVI-1" source="aRgtjxC-XMr0UuCk3uVI-11" target="aRgtjxC-XMr0UuCk3uVI-12" edge="1">
          <mxGeometry relative="1" as="geometry" />
        </mxCell>
        <mxCell id="aRgtjxC-XMr0UuCk3uVI-11" value="Publish the article" style="rounded=1;whiteSpace=wrap;html=1;absoluteArcSize=1;arcSize=14;strokeWidth=2;" parent="aRgtjxC-XMr0UuCk3uVI-1" vertex="1">
          <mxGeometry x="40" y="360" width="120" height="50" as="geometry" />
        </mxCell>
        <mxCell id="aRgtjxC-XMr0UuCk3uVI-12" value="Sign the article" style="rounded=1;whiteSpace=wrap;html=1;absoluteArcSize=1;arcSize=14;strokeWidth=2;" parent="aRgtjxC-XMr0UuCk3uVI-1" vertex="1">
          <mxGeometry x="40" y="440" width="120" height="50" as="geometry" />
        </mxCell>
        <mxCell id="aRgtjxC-XMr0UuCk3uVI-13" style="edgeStyle=orthogonalEdgeStyle;rounded=0;orthogonalLoop=1;jettySize=auto;html=1;exitX=0.5;exitY=1;exitDx=0;exitDy=0;entryX=0.5;entryY=0;entryDx=0;entryDy=0;entryPerimeter=0;fontSize=9;" parent="aRgtjxC-XMr0UuCk3uVI-1" source="aRgtjxC-XMr0UuCk3uVI-14" target="aRgtjxC-XMr0UuCk3uVI-15" edge="1">
          <mxGeometry relative="1" as="geometry" />
        </mxCell>
        <mxCell id="aRgtjxC-XMr0UuCk3uVI-14" value="View the article entry" style="rounded=1;whiteSpace=wrap;html=1;absoluteArcSize=1;arcSize=14;strokeWidth=2;" parent="aRgtjxC-XMr0UuCk3uVI-1" vertex="1">
          <mxGeometry x="40" y="840" width="120" height="50" as="geometry" />
        </mxCell>
        <mxCell id="aRgtjxC-XMr0UuCk3uVI-15" value="End" style="strokeWidth=2;html=1;shape=mxgraph.flowchart.start_2;whiteSpace=wrap;" parent="aRgtjxC-XMr0UuCk3uVI-1" vertex="1">
          <mxGeometry x="75" y="920" width="50" height="50" as="geometry" />
        </mxCell>
        <mxCell id="aRgtjxC-XMr0UuCk3uVI-16" value="Our System" style="swimlane;whiteSpace=wrap;html=1;" parent="1" vertex="1">
          <mxGeometry x="325" y="50" width="200" height="1040" as="geometry" />
        </mxCell>
        <mxCell id="aRgtjxC-XMr0UuCk3uVI-18" style="edgeStyle=orthogonalEdgeStyle;rounded=0;orthogonalLoop=1;jettySize=auto;html=1;exitX=0.5;exitY=1;exitDx=0;exitDy=0;entryX=0.5;entryY=0;entryDx=0;entryDy=0;" parent="aRgtjxC-XMr0UuCk3uVI-16" source="aRgtjxC-XMr0UuCk3uVI-19" target="aRgtjxC-XMr0UuCk3uVI-23" edge="1">
          <mxGeometry relative="1" as="geometry" />
        </mxCell>
        <mxCell id="ybuCih2673T1gLkviC2H-2" style="edgeStyle=orthogonalEdgeStyle;rounded=0;orthogonalLoop=1;jettySize=auto;html=1;exitX=1;exitY=0;exitDx=0;exitDy=0;entryX=0.5;entryY=1.02;entryDx=0;entryDy=0;entryPerimeter=0;dashed=1;" edge="1" parent="aRgtjxC-XMr0UuCk3uVI-16" source="aRgtjxC-XMr0UuCk3uVI-19" target="ybuCih2673T1gLkviC2H-1">
          <mxGeometry relative="1" as="geometry" />
        </mxCell>
        <mxCell id="aRgtjxC-XMr0UuCk3uVI-19" value="Store the article" style="rounded=1;whiteSpace=wrap;html=1;absoluteArcSize=1;arcSize=14;strokeWidth=2;" parent="aRgtjxC-XMr0UuCk3uVI-16" vertex="1">
          <mxGeometry x="25" y="440" width="120" height="50" as="geometry" />
        </mxCell>
        <mxCell id="aRgtjxC-XMr0UuCk3uVI-22" style="edgeStyle=orthogonalEdgeStyle;rounded=0;orthogonalLoop=1;jettySize=auto;html=1;exitX=0.5;exitY=1;exitDx=0;exitDy=0;entryX=0.5;entryY=0;entryDx=0;entryDy=0;" parent="aRgtjxC-XMr0UuCk3uVI-16" source="aRgtjxC-XMr0UuCk3uVI-23" target="aRgtjxC-XMr0UuCk3uVI-24" edge="1">
          <mxGeometry relative="1" as="geometry" />
        </mxCell>
        <mxCell id="aRgtjxC-XMr0UuCk3uVI-23" value="Generate the article entry (Json Data)" style="rounded=1;whiteSpace=wrap;html=1;absoluteArcSize=1;arcSize=14;strokeWidth=2;" parent="aRgtjxC-XMr0UuCk3uVI-16" vertex="1">
          <mxGeometry x="25" y="520" width="120" height="50" as="geometry" />
        </mxCell>
        <mxCell id="aRgtjxC-XMr0UuCk3uVI-24" value="Pay around 0.00005 AR to store the data in Blockchain" style="rounded=1;whiteSpace=wrap;html=1;absoluteArcSize=1;arcSize=14;strokeWidth=2;" parent="aRgtjxC-XMr0UuCk3uVI-16" vertex="1">
          <mxGeometry x="25" y="600" width="120" height="50" as="geometry" />
        </mxCell>
        <mxCell id="aRgtjxC-XMr0UuCk3uVI-25" value="&lt;font style=&quot;font-size: 9px;&quot;&gt;Subsidized by the system&lt;/font&gt;" style="strokeWidth=2;html=1;shape=mxgraph.flowchart.annotation_2;align=left;labelPosition=right;pointerEvents=1;rotation=0;" parent="aRgtjxC-XMr0UuCk3uVI-16" vertex="1">
          <mxGeometry x="144.5" y="575" width="15" height="60" as="geometry" />
        </mxCell>
        <mxCell id="aRgtjxC-XMr0UuCk3uVI-26" style="edgeStyle=orthogonalEdgeStyle;rounded=0;orthogonalLoop=1;jettySize=auto;html=1;exitX=0.5;exitY=1;exitDx=0;exitDy=0;entryX=0.5;entryY=0;entryDx=0;entryDy=0;fontSize=9;" parent="aRgtjxC-XMr0UuCk3uVI-16" source="aRgtjxC-XMr0UuCk3uVI-27" target="aRgtjxC-XMr0UuCk3uVI-28" edge="1">
          <mxGeometry relative="1" as="geometry" />
        </mxCell>
        <mxCell id="aRgtjxC-XMr0UuCk3uVI-27" value="Retrieve the hash transaction" style="rounded=1;whiteSpace=wrap;html=1;absoluteArcSize=1;arcSize=14;strokeWidth=2;" parent="aRgtjxC-XMr0UuCk3uVI-16" vertex="1">
          <mxGeometry x="25" y="760" width="120" height="50" as="geometry" />
        </mxCell>
        <mxCell id="aRgtjxC-XMr0UuCk3uVI-28" value="Post the hash transaction to the article" style="rounded=1;whiteSpace=wrap;html=1;absoluteArcSize=1;arcSize=14;strokeWidth=2;" parent="aRgtjxC-XMr0UuCk3uVI-16" vertex="1">
          <mxGeometry x="25" y="840" width="120" height="50" as="geometry" />
        </mxCell>
        <mxCell id="ybuCih2673T1gLkviC2H-1" value="" style="aspect=fixed;html=1;points=[];align=center;image;fontSize=12;image=img/lib/azure2/blockchain/Azure_Blockchain_Service.svg;" vertex="1" parent="aRgtjxC-XMr0UuCk3uVI-16">
          <mxGeometry x="127" y="360" width="50" height="50" as="geometry" />
        </mxCell>
        <mxCell id="aRgtjxC-XMr0UuCk3uVI-21" value="RDBMS by Tableland" style="text;html=1;align=center;verticalAlign=middle;resizable=0;points=[];autosize=1;strokeColor=none;fillColor=none;" parent="aRgtjxC-XMr0UuCk3uVI-16" vertex="1">
          <mxGeometry x="60" y="330" width="140" height="30" as="geometry" />
        </mxCell>
        <mxCell id="aRgtjxC-XMr0UuCk3uVI-29" value="Blockchain System" style="swimlane;whiteSpace=wrap;html=1;" parent="1" vertex="1">
          <mxGeometry x="525" y="50" width="200" height="1040" as="geometry" />
        </mxCell>
        <mxCell id="aRgtjxC-XMr0UuCk3uVI-30" style="edgeStyle=orthogonalEdgeStyle;rounded=0;orthogonalLoop=1;jettySize=auto;html=1;exitX=0.5;exitY=0;exitDx=0;exitDy=0;entryX=0.56;entryY=0.98;entryDx=0;entryDy=0;entryPerimeter=0;dashed=1;" parent="aRgtjxC-XMr0UuCk3uVI-29" source="aRgtjxC-XMr0UuCk3uVI-32" target="aRgtjxC-XMr0UuCk3uVI-33" edge="1">
          <mxGeometry relative="1" as="geometry" />
        </mxCell>
        <mxCell id="aRgtjxC-XMr0UuCk3uVI-31" style="edgeStyle=orthogonalEdgeStyle;rounded=0;orthogonalLoop=1;jettySize=auto;html=1;exitX=0.5;exitY=1;exitDx=0;exitDy=0;entryX=0.5;entryY=0;entryDx=0;entryDy=0;fontSize=8;" parent="aRgtjxC-XMr0UuCk3uVI-29" source="aRgtjxC-XMr0UuCk3uVI-32" target="aRgtjxC-XMr0UuCk3uVI-35" edge="1">
          <mxGeometry relative="1" as="geometry" />
        </mxCell>
        <mxCell id="aRgtjxC-XMr0UuCk3uVI-32" value="Store the data on Blokchain" style="rounded=1;whiteSpace=wrap;html=1;absoluteArcSize=1;arcSize=14;strokeWidth=2;" parent="aRgtjxC-XMr0UuCk3uVI-29" vertex="1">
          <mxGeometry x="40" y="680" width="120" height="50" as="geometry" />
        </mxCell>
        <mxCell id="aRgtjxC-XMr0UuCk3uVI-33" value="" style="aspect=fixed;html=1;points=[];align=center;image;fontSize=12;image=img/lib/azure2/blockchain/Azure_Blockchain_Service.svg;" parent="aRgtjxC-XMr0UuCk3uVI-29" vertex="1">
          <mxGeometry x="75" y="600" width="50" height="50" as="geometry" />
        </mxCell>
        <mxCell id="aRgtjxC-XMr0UuCk3uVI-34" value="&lt;font style=&quot;font-size: 9px;&quot;&gt;&lt;b&gt;Arweave Blockchain&lt;/b&gt;&lt;/font&gt;" style="text;html=1;align=center;verticalAlign=middle;resizable=0;points=[];autosize=1;strokeColor=none;fillColor=none;" parent="aRgtjxC-XMr0UuCk3uVI-29" vertex="1">
          <mxGeometry x="45" y="570" width="110" height="30" as="geometry" />
        </mxCell>
        <mxCell id="aRgtjxC-XMr0UuCk3uVI-35" value="Generate a hash transaction" style="rounded=1;whiteSpace=wrap;html=1;absoluteArcSize=1;arcSize=14;strokeWidth=2;" parent="aRgtjxC-XMr0UuCk3uVI-29" vertex="1">
          <mxGeometry x="40" y="760" width="120" height="50" as="geometry" />
        </mxCell>
        <mxCell id="aRgtjxC-XMr0UuCk3uVI-36" style="edgeStyle=orthogonalEdgeStyle;rounded=0;orthogonalLoop=1;jettySize=auto;html=1;exitX=1;exitY=0.5;exitDx=0;exitDy=0;entryX=0;entryY=0.5;entryDx=0;entryDy=0;" parent="1" source="aRgtjxC-XMr0UuCk3uVI-12" target="aRgtjxC-XMr0UuCk3uVI-19" edge="1">
          <mxGeometry relative="1" as="geometry" />
        </mxCell>
        <mxCell id="aRgtjxC-XMr0UuCk3uVI-37" style="edgeStyle=orthogonalEdgeStyle;rounded=0;orthogonalLoop=1;jettySize=auto;html=1;exitX=0.5;exitY=1;exitDx=0;exitDy=0;entryX=0;entryY=0.5;entryDx=0;entryDy=0;fontSize=8;" parent="1" source="aRgtjxC-XMr0UuCk3uVI-24" target="aRgtjxC-XMr0UuCk3uVI-32" edge="1">
          <mxGeometry relative="1" as="geometry" />
        </mxCell>
        <mxCell id="aRgtjxC-XMr0UuCk3uVI-38" style="edgeStyle=orthogonalEdgeStyle;rounded=0;orthogonalLoop=1;jettySize=auto;html=1;exitX=0;exitY=0.5;exitDx=0;exitDy=0;entryX=1;entryY=0.5;entryDx=0;entryDy=0;fontSize=8;" parent="1" source="aRgtjxC-XMr0UuCk3uVI-35" target="aRgtjxC-XMr0UuCk3uVI-27" edge="1">
          <mxGeometry relative="1" as="geometry" />
        </mxCell>
        <mxCell id="aRgtjxC-XMr0UuCk3uVI-39" style="edgeStyle=orthogonalEdgeStyle;rounded=0;orthogonalLoop=1;jettySize=auto;html=1;exitX=0;exitY=0.5;exitDx=0;exitDy=0;entryX=1;entryY=0.5;entryDx=0;entryDy=0;fontSize=9;" parent="1" source="aRgtjxC-XMr0UuCk3uVI-28" target="aRgtjxC-XMr0UuCk3uVI-14" edge="1">
          <mxGeometry relative="1" as="geometry" />
        </mxCell>
      </root>
    </mxGraphModel>
  </diagram>
</mxfile>
